<?xml version="1.0" standalone="no"?>
<!DOCTYPE svg PUBLIC "-//W3C//DTD SVG 20010904//EN"
 "http://www.w3.org/TR/2001/REC-SVG-20010904/DTD/svg10.dtd">
<svg version="1.0" xmlns="http://www.w3.org/2000/svg"
 width="500.000000pt" height="500.000000pt" viewBox="0 0 500.000000 500.000000"
 preserveAspectRatio="xMidYMid meet">

<g transform="translate(0.000000,500.000000) scale(0.100000,-0.100000)"
fill="#000000" stroke="none">
<path d="M2067 2570 c-141 -36 -210 -136 -210 -305 -1 -152 50 -249 155 -296
76 -33 210 -33 286 0 67 30 118 89 139 161 21 73 20 203 -2 271 -22 65 -92
139 -150 157 -54 17 -171 23 -218 12z m161 -155 c66 -56 70 -246 5 -307 -20
-18 -36 -23 -80 -23 -47 0 -58 4 -78 28 -64 73 -59 246 8 303 40 33 104 33
145 -1z" fill="white"/>
<path d="M100 2260 l0 -310 80 0 80 0 0 115 0 115 95 0 95 0 0 70 0 70 -95 0
-95 0 0 55 0 55 100 0 100 0 0 70 0 70 -180 0 -180 0 0 -310z" fill="white"/>
<path d="M820 2260 l0 -312 163 4 c146 3 167 5 209 26 64 32 91 72 96 142 5
71 -14 113 -65 139 l-37 18 31 16 c60 31 82 131 43 195 -37 60 -91 75 -277 80
l-163 4 0 -312z m272 163 c43 -39 4 -93 -67 -93 l-45 0 0 55 0 55 47 0 c29 0
53 -6 65 -17z m14 -238 c21 -29 17 -72 -8 -89 -13 -9 -43 -16 -70 -16 l-48 0
0 66 0 66 56 -4 c40 -3 61 -10 70 -23z" fill="white"/>
<path d="M2785 2425 c-22 -8 -47 -23 -57 -35 -21 -26 -24 -26 -37 10 -10 29
-12 30 -70 30 l-61 0 0 -240 0 -240 79 0 79 0 4 148 c2 91 8 155 16 169 27 49
85 53 103 6 5 -13 9 -92 9 -174 l0 -149 85 0 85 0 0 148 c0 161 8 190 53 206
23 8 31 6 50 -12 21 -21 22 -33 26 -182 l3 -160 79 0 79 0 0 183 c-1 243 -17
281 -133 302 -49 9 -119 -10 -148 -41 l-22 -23 -29 24 c-52 44 -123 55 -193
30z" fill="white"/>
<path d="M3575 2434 c-38 -6 -125 -34 -125 -40 0 -14 43 -104 50 -104 4 0 27
7 50 15 65 23 106 20 126 -10 8 -13 13 -28 10 -33 -3 -5 -43 -11 -89 -14 -98
-5 -157 -32 -182 -84 -31 -66 -10 -155 46 -197 54 -39 160 -31 213 18 15 14
29 25 30 25 2 0 9 -13 16 -30 12 -29 15 -30 72 -30 l59 0 -3 193 c-3 180 -4
194 -25 223 -13 17 -39 39 -60 49 -37 18 -132 27 -188 19z m115 -298 c0 -33
-37 -76 -65 -76 -40 0 -55 11 -55 41 0 36 32 59 82 59 33 0 38 -3 38 -24z" fill="white"/>
<path d="M4084 2431 c-75 -19 -134 -86 -134 -152 0 -48 21 -99 50 -120 l28
-22 -29 -24 c-37 -31 -39 -74 -5 -108 l24 -23 -23 -6 c-12 -3 -34 -18 -48 -32
-21 -21 -27 -36 -27 -71 0 -91 101 -143 251 -129 159 14 239 77 239 186 0 92
-52 130 -178 130 -89 0 -132 11 -132 35 0 12 14 15 68 15 131 1 195 56 190
161 -3 56 -2 57 30 69 29 10 32 15 32 51 l0 39 -87 0 c-49 0 -117 2 -153 5
-36 2 -79 1 -96 -4z m99 -94 c46 -33 25 -137 -28 -137 -30 0 -45 26 -45 79 0
30 6 44 22 55 27 19 30 19 51 3z m76 -421 c16 -19 4 -42 -28 -55 -37 -16 -138
-16 -156 -1 -18 15 -19 42 -3 58 18 18 172 16 187 -2z" fill="white"/>
<path d="M4625 2427 c-99 -33 -145 -97 -153 -211 -8 -123 30 -201 122 -249 50
-25 184 -30 259 -8 l47 14 0 58 c0 33 -1 59 -2 59 -2 0 -25 -7 -52 -15 -113
-34 -206 -7 -206 61 0 11 27 14 146 14 l147 0 -5 79 c-6 95 -34 149 -98 181
-52 26 -152 34 -205 17z m140 -130 c28 -40 20 -47 -55 -47 -75 0 -83 7 -55 47
26 37 85 36 110 0z" fill="white"/>
<path d="M575 2088 c-29 -16 -35 -28 -35 -70 0 -68 86 -103 144 -57 34 27 37
88 4 119 -24 22 -80 27 -113 8z" fill="white"/>
<path d="M1395 2075 c-54 -53 -15 -135 63 -135 51 0 81 25 88 72 5 30 2 41
-19 62 -36 36 -98 36 -132 1z" fill="white"/>
</g>
</svg>
